PathFileType	4	(X/Y/Z)	C:/Users/beibeiliu/ov580/test_trc/User2\sequence.30_training_dense_right.trc
DataRate	CameraRate	NumFrames	NumMarkers	Units	OrigDataRate	OrigDataStartFrame	OrigNumFrames
120	120	16	19	mm	120	53	78
Frame#	Time	ThumbCMC			ThumbMCP			ThumbIP			ThumbTip			IndexMCP			IndexPIP			IndexTip			MiddleMCP			MiddlePIP			MiddleTip			RingMCP			RingPIP			RingTip			PinkyMCP			PinkyPIP			PinkyTip			BackHand1			BackHand2			BackHand3	
		X0	Y0	Z0	X1	Y1	Z1	X2	Y2	Z2	X3	Y3	Z3	X4	Y4	Z4	X5	Y5	Z5	X6	Y6	Z6	X7	Y7	Z7	X8	Y8	Z8	X9	Y9	Z9	X10	Y10	Z10	X11	Y11	Z11	X12	Y12	Z12	X13	Y13	Z13	X14	Y14	Z14	X15	Y15	Z15	X16	Y16	Z16	X17	Y17	Z17	X18	Y18	Z18	
52	0.433333	143.888	112.049	0.176883	115.4	136.781	-21.8032	83.8739	126.014	-38.0916	65.8249	104.947	-41.2087	129.221	110.373	-82.6147	123.516	125.983	-105.576	106.592	139.759	-127.377	111.161	93.0695	-88.7285	103.984	108.427	-113.065	87.4336	120.554	-140.221	90.5504	83.7387	-80.5032	80.8393	93.7194	-102.036	69.6229	104.515	-127.857	74.9386	78.7052	-59.3898	65.0832	90.2341	-79.9544	58.7674	96.9168	-101.582	108.121	56.8256	-29.4859	121.233	45.895	1.74224	142.714	70.0788	-17.266	
53	0.441667	145.702	104.289	-4.15514	120.035	132.211	-27.0525	87.418	125.853	-42.0126	67.641	97.6107	-43.4496	131.321	99.5726	-84.35	122.662	112.149	-107.153	109.668	127.124	-128.932	113.51	85.2453	-90.6473	101.075	97.655	-121.371	88.0376	108.848	-144.659	87.6722	75.1351	-84.2785	79.607	83.8007	-104.888	73.7904	97.4206	-132.996	72.0589	71.2306	-61.0697	61.7016	80.7047	-81.3818	60.9717	87.0893	-104.267	107.274	50.2842	-29.7112	118.432	39.6452	-2.34298	145.239	62.5124	-22.2152	
54	0.45	141.247	93.6465	-9.67659	117.265	117.95	-31.8755	84.2554	107.721	-51.4382	68.074	85.8372	-49.8093	128.946	88.0427	-94.3497	122	101.199	-118.598	110.699	111.33	-137.896	112.723	71.555	-98.7693	101.712	82.5442	-128.296	92.3014	92.4091	-151.363	91.8519	61.7634	-90.5337	80.5237	65.7305	-111.387	75.0493	75.1943	-136.81	74.6153	55.3439	-70.9708	65.5332	63.1783	-91.9713	60.4904	64.2035	-116.927	110.677	41.451	-37.6939	119.908	28.6373	-6.45279	145.815	53.9855	-29.6958	
55	0.458333	126.143	77.7987	-17.4038	97.7321	90.8605	-42.5392	70.5989	75.0434	-59.2281	64.775	43.7606	-56.879	120.867	70.7663	-99.7312	109.044	77.0453	-123.624	98.2655	83.0059	-145.142	109.293	47.2749	-104.804	97.6941	54.0837	-132.881	84.0417	58.0296	-162.542	93.0101	28.1058	-94.7996	85.5265	36.3749	-122.52	74.8352	35.9177	-147.243	80.5508	19.4486	-75.7618	69.105	21.1281	-100.729	69.3678	24.7119	-122.917	115.883	16.6014	-44.7152	127.762	10.9921	-12.0081	145.043	44.7881	-34.4576	
56	0.466667	104.003	52.888	-24.4919	72.074	51.6342	-50.0671	58.8252	22.8815	-67.771	63.8592	-5.67852	-65.0527	102.234	38.8607	-106.093	91.7253	43.3979	-127.453	79.5946	42.2545	-154.545	102.218	15.5238	-109.485	89.1129	14.0654	-135.563	77.7536	14.0939	-165.24	97.1238	-4.51843	-99.5481	86.9069	-9.2563	-125.79	77.401	-9.80261	-150.595	89.98	-19.2667	-81.0268	80.1654	-24.7504	-104.1	76.2376	-25.7019	-128.124	120.867	-8.72919	-46.093	135.442	-6.5614	-17.7176	133.97	27.0438	-39.5337	
57	0.475	80.9547	25.4253	-25.2778	56.8313	10.0393	-56.0278	58.2801	-23.0777	-76.9583	74.9623	-42.0078	-70.7173	87.2339	15.7986	-106.459	77.6498	10.3686	-131.714	67.4776	3.28986	-157.773	98.9296	-9.17563	-112.255	87.8447	-12.805	-141.612	80.8427	-20.1851	-167.587	106.728	-29.436	-102.384	99.3448	-33.0273	-127.569	90.1843	-33.5388	-155.626	109.175	-46.7181	-86.5306	100.488	-47.7496	-107.363	99.9795	-50.2222	-134.713	126.894	-16.0113	-49.3904	138.127	-11.8824	-22.8293	120.496	17.121	-41.2079	
58	0.483333	71.8346	2.32923	-27.882	54.951	-16.4782	-57.4924	68.5908	-40.4961	-83.466	98.4762	-53.5361	-79.4436	83.5064	5.7693	-106.155	73.4751	4.41448	-134.176	68.2752	-2.57146	-159.152	105.182	-6.52558	-111.815	100.487	-12.4822	-145.988	92.7637	-14.6045	-175.976	118.225	-21.4454	-105.869	118.333	-29.5134	-133.55	112.767	-29.6564	-158.833	131.317	-42.4915	-89.439	128.145	-46.6335	-113.702	130.794	-45.5856	-137.402	132.441	-14.5228	-48.6543	139.178	-5.37903	-17.2367	109.862	15.0697	-36.9445	
59	0.491667	74.7069	-9.27991	-28.3223	63.1292	-25.56	-64.1482	90.2912	-39.1539	-87.3247	115.851	-45.9942	-87.2182	82.969	10.66	-105.3	79.981	8.05154	-132.341	79.1969	4.52074	-161.066	110.793	5.06835	-114.759	108.863	4.50124	-145.063	107.403	3.91371	-172.858	132.198	-7.61005	-107.396	133.478	-8.93538	-133.461	132.389	-8.59988	-159.872	148.157	-25.7732	-89.2134	149.914	-28.1411	-113.867	150.292	-23.3827	-136.413	135.717	-2.96155	-52.5837	139.681	3.20109	-15.9248	107.635	16.1596	-33.859	
60	0.5	78.4972	-7.20426	-28.029	77.0248	-17.2225	-64.6829	100.312	-24.8845	-93.4214	131.708	-27.7903	-93.6709	93.7126	25.0054	-105.772	86.9655	26.215	-133.33	85.7344	29.1308	-159.989	118.029	23.8294	-107.593	115.472	26.469	-138.206	121.593	32.5574	-172.623	142.944	13.906	-107.021	144.229	15.7948	-129.527	145.352	22.9319	-157.163	161.276	-5.17389	-87.4331	160.117	0.444702	-114.653	169.517	7.57087	-131.429	145.02	11.1793	-47.6505	145.108	12.2411	-13.6868	111.243	23.7561	-33.5564	
61	0.508333	83.6404	8.5992	-30.2675	75.8761	0.708918	-67.6544	102.425	-2.15332	-97.6214	131.401	-4.90678	-92.9106	96.0693	51.3385	-93.0998	94.5418	58.5275	-123.783	88.6879	64.2479	-147.439	125.643	49.9349	-99.693	119.845	62.0189	-130.929	121.012	71.4013	-159.696	143.419	41.932	-97.3072	146.221	50.0146	-119.021	148.702	61.1812	-145.879	162.248	22.1629	-86.1795	168.435	27.8228	-106.353	173.974	45.7475	-128.149	148.257	26.0221	-44.8487	148.88	22.0386	-11.0798	112.066	37.4952	-25.9119	
62	0.516667	77.6246	15.0011	-27.1118	72.1794	9.31974	-65.3559	98.965	8.24933	-96.5879	126.76	4.58245	-94.8597	93.9892	62.6871	-87.5615	89.6683	72.1243	-113.354	81.7913	82.763	-141.182	119.784	66.1284	-97.8766	114.662	76.8377	-123.342	117.187	89.1951	-155.133	141.816	50.9143	-91.9788	139.699	66.6761	-117.01	142.496	80.3957	-143.584	160.516	27.7299	-82.8955	163.697	40.6825	-106.497	168.608	56.4642	-125.634	142.777	31.0833	-39.9353	147.075	23.62	-7.57184	110.761	41.1156	-24.0908	
63	0.525	70.4491	4.5369	-28.441	65.7748	-3.53885	-64.7706	88.9662	-9.19131	-95.0219	122.089	-13.135	-92.4956	86.5913	45.2384	-93.5235	75.218	55.3228	-119.811	75.7783	59.479	-148.455	112.231	44.4858	-101.37	108.151	53.09	-128.094	109.948	64.9411	-162.739	134.794	31.2746	-96.0027	135.746	41.5164	-121.664	135.547	52.4603	-147.211	152.907	9.01511	-85.181	154.683	17.0277	-107.454	164.629	30.2992	-127.08	136.917	20.3656	-44.8502	138.439	13.4314	-8.85076	101.894	30.4061	-26.6971	
64	0.533333	66.5932	-4.70746	-21.933	58.765	-16.6798	-63.4325	78.2822	-32.4121	-88.9978	111.75	-37.594	-84.6793	78.9143	21.8978	-98.2051	70.795	23.7791	-129.492	70.2277	23.467	-155.996	103.926	16.3896	-108.068	104.369	16.2376	-138.246	101.081	21.291	-168.515	128.277	1.8438	-101.475	131.449	5.85203	-131.627	128.329	10.0026	-154.13	143.961	-18.5068	-86.8819	149.842	-17.2631	-111.865	159.421	-12.1606	-131.439	133.37	0.347613	-48.4566	135.815	3.11257	-12.6514	101.727	17.8774	-29.7961	
65	0.541667	65.0062	6.43691	-22.1819	52.1966	-12.118	-53.8262	64.8461	-36.1093	-79.0775	91.5469	-50.6371	-75.1564	78.1776	10.2331	-101.167	71.0329	4.08537	-130.916	64.7127	1.20039	-154.335	101.594	-5.40427	-113.615	94.7239	-9.65314	-138.818	88.5834	-11.6175	-168.178	114.863	-20.7625	-104.565	113.085	-24.2364	-129.665	109.944	-25.6419	-158.224	126.726	-41.8819	-86.6535	128.881	-49.086	-112.031	131.319	-48.3869	-131.715	128.242	-12.9233	-46.8661	132.719	-4.26586	-14.268	107.277	16.1354	-37.1867	
66	0.55	72.6768	29.8977	-22.6706	48.4507	12.0593	-47.5972	50.4429	-21.9058	-69.8614	69.5503	-42.3918	-62.2581	75.8126	10.6765	-103.747	64.6879	8.90018	-126.069	53.0522	0.0277481	-154.103	88.445	-10.2468	-107.064	76.5934	-17.4139	-134.729	65.9989	-26.1149	-165.125	95.1063	-31.9975	-101.64	87.0967	-38.8778	-125.599	78.3147	-42.1061	-148.463	98.9673	-48.1095	-78.1033	91.5265	-54.4927	-98.0904	90.7508	-62.2606	-124.028	119.329	-20.9553	-49.052	130.438	-10.2756	-18.1037	112.329	18.6303	-37.7823	
67	0.558333	89.0168	50.8576	-23.6206	55.8207	39.8687	-44.2502	44.0814	5.49656	-56.9679	48.7791	-20.3234	-51.8135	74.319	19.8571	-100.12	58.5157	18.2524	-122.96	42.7102	8.29048	-144.375	72.5348	-0.399079	-105.097	57.1442	-8.34621	-126.132	41.0028	-15.0385	-151.225	73.4941	-23.5162	-88.2076	58.9808	-26.9248	-110.873	43.8117	-30.8023	-134.939	70.8663	-37.6474	-66.5686	57.711	-37.7739	-91.9703	50.8241	-44.4792	-110.408	106.28	-15.8476	-41.7459	126.46	-12.1632	-14.3729	117.574	22.7913	-42.7946	
